<?xml version="1.0" encoding="UTF-8" standalone="no"?>
<!-- Created with Inkscape (http://www.inkscape.org/) -->

<svg
   xmlns:dc="http://purl.org/dc/elements/1.1/"
   xmlns:cc="http://creativecommons.org/ns#"
   xmlns:rdf="http://www.w3.org/1999/02/22-rdf-syntax-ns#"
   xmlns:svg="http://www.w3.org/2000/svg"
   xmlns="http://www.w3.org/2000/svg"
   xmlns:xlink="http://www.w3.org/1999/xlink"
   xmlns:sodipodi="http://sodipodi.sourceforge.net/DTD/sodipodi-0.dtd"
   xmlns:inkscape="http://www.inkscape.org/namespaces/inkscape"
   width="210mm"
   height="297mm"
   viewBox="0 0 210 297"
   version="1.1"
   id="svg8"
   sodipodi:docname="logo.svg"
   inkscape:version="0.92.4 (5da689c313, 2019-01-14)"
   inkscape:export-filename="C:\Users\HP\Documents\Launch_X\FrontEnd\Semana2\complementos\logo.png"
   inkscape:export-xdpi="300"
   inkscape:export-ydpi="300">
  <defs
     id="defs2" />
  <sodipodi:namedview
     id="base"
     pagecolor="#ffffff"
     bordercolor="#666666"
     borderopacity="1.0"
     inkscape:pageopacity="0.0"
     inkscape:pageshadow="2"
     inkscape:zoom="0.35"
     inkscape:cx="-109.3345"
     inkscape:cy="422.71901"
     inkscape:document-units="mm"
     inkscape:current-layer="layer1"
     showgrid="false"
     inkscape:snap-bbox="false"
     inkscape:snap-global="false"
     inkscape:snap-intersection-paths="true"
     inkscape:window-width="1366"
     inkscape:window-height="705"
     inkscape:window-x="-8"
     inkscape:window-y="-8"
     inkscape:window-maximized="1"
     inkscape:pagecheckerboard="true" />
  <metadata
     id="metadata5">
    <rdf:RDF>
      <cc:Work
         rdf:about="">
        <dc:format>image/svg+xml</dc:format>
        <dc:type
           rdf:resource="http://purl.org/dc/dcmitype/StillImage" />
        <dc:title />
      </cc:Work>
    </rdf:RDF>
  </metadata>
  <g
     inkscape:label="Capa 1"
     inkscape:groupmode="layer"
     id="layer1">
    <g
       id="g966">
      <g
         id="g4723">
        <path
           style="fill:none;stroke:#000000;stroke-width:3;stroke-linecap:round;stroke-linejoin:round;stroke-miterlimit:4;stroke-dasharray:none;stroke-opacity:1"
           d="m 59.53125,115.38244 c 0.581517,-9.01372 6.173267,-11.02603 17.534441,-12.59424 11.361174,-1.56821 58.479099,-5.872672 67.862569,-0.18681 9.38346,5.68586 10.42106,17.42984 9.28603,29.22301 -5.98837,15.56002 -6.08767,31.12005 -3.02381,46.68007 -21.79227,10.03545 -36.84355,7.37893 -48.75537,2.08529 -17.286037,-4.80975 -25.40205,-4.5809 -40.447014,-2.65226 9.84706,-20.85169 2.068726,-41.70337 -2.456846,-62.55506 z"
           id="path4518"
           inkscape:connector-curvature="0"
           sodipodi:nodetypes="czzccccc" />
        <path
           style="fill:none;stroke:#000000;stroke-width:3;stroke-linecap:round;stroke-linejoin:round;stroke-miterlimit:4;stroke-dasharray:none;stroke-opacity:1"
           d="m 132.18001,77.225838 c -5.13916,-11.68846 -31.16686,-19.99121 -42.471862,-23.97788 28.714922,-1.51075 63.514792,15.81504 79.716902,45.50258 16.20211,29.687542 19.24953,57.115602 8.45169,82.879622 C 167.0789,207.39418 152.4874,214.5123 127,225.94048 c -25.4874,11.42818 -66.902346,7.22503 -79.374999,0.75594 38.692073,-2.77611 52.115576,-2.62955 69.253079,-18.28466"
           id="path4520"
           inkscape:connector-curvature="0"
           sodipodi:nodetypes="cczzzcc" />
        <path
           style="fill:none;stroke:#000000;stroke-width:3;stroke-linecap:round;stroke-linejoin:round;stroke-miterlimit:4;stroke-dasharray:none;stroke-opacity:1"
           d="m 24.946429,189.65476 c 14.511688,-10.56567 57.624937,-18.03397 83.532731,-6.80357 25.90781,11.2304 61.40184,-11.65459 69.54763,-27.21429"
           id="path4522"
           inkscape:connector-curvature="0"
           sodipodi:nodetypes="czc" />
        <path
           style="fill:none;stroke:#000000;stroke-width:3.5;stroke-linecap:round;stroke-linejoin:round;stroke-miterlimit:4;stroke-dasharray:none;stroke-opacity:1"
           d="M 60.098214,193.05654 C 91.685195,174.59578 116.40558,211.85418 146.0878,192.3006"
           id="path4524"
           inkscape:connector-curvature="0"
           sodipodi:nodetypes="cc" />
        <path
           style="fill:none;stroke:#000000;stroke-width:3;stroke-linecap:round;stroke-linejoin:miter;stroke-miterlimit:4;stroke-dasharray:none;stroke-opacity:1"
           d="m 60.111644,130.65805 c 7.744385,-5.02454 24.284048,-5.4598 30.224665,-2.99138 5.940617,2.46842 23.874701,7.65655 35.151791,0.75595 11.27709,-6.9006 31.32525,2.89328 30.61607,3.77976"
           id="path4526"
           inkscape:connector-curvature="0"
           sodipodi:nodetypes="czzc" />
        <path
           style="fill:none;stroke:#000000;stroke-width:2;stroke-linecap:round;stroke-linejoin:round;stroke-miterlimit:4;stroke-dasharray:none;stroke-opacity:1"
           d="m 65.767857,85.711308 c 3.235979,-4.73479 4.893627,-4.22971 7.654019,-0.37798 2.760391,3.85173 4.600174,10.36697 2.173363,12.85119 -3.142223,1.02455 -6.455698,0.86461 -8.693453,-0.37798 -6.009949,-2.97575 -3.765719,-7.67633 -1.133929,-12.09523 z"
           id="path4534"
           inkscape:connector-curvature="0"
           sodipodi:nodetypes="czccc" />
        <path
           style="fill:none;stroke:#000000;stroke-width:2;stroke-linecap:round;stroke-linejoin:round;stroke-miterlimit:4;stroke-dasharray:none;stroke-opacity:1"
           d="m 103.20273,82.160458 c 3.23598,-4.73479 4.89363,-4.22971 7.65402,-0.37798 2.7604,3.85173 6.24338,10.51011 2.17337,12.85119 -4.07002,2.34108 -8.46023,1.66642 -10.69798,0.42383 -6.009952,-2.97575 -1.7612,-8.47814 0.87059,-12.89704 z"
           id="path4534-6"
           inkscape:connector-curvature="0"
           sodipodi:nodetypes="czzcc" />
        <path
           style="fill:none;stroke:#000000;stroke-width:2;stroke-linecap:round;stroke-linejoin:round;stroke-miterlimit:4;stroke-dasharray:none;stroke-opacity:1"
           d="m 133.8188,82.727438 c 3.23598,-4.73479 5.41474,-2.89712 8.17513,0.88957 2.76039,3.7867 6.58139,10.28948 2.32042,11.87382 -2.19728,1.21354 -8.60745,0.21502 -11.06251,-1.8021 -2.45506,-2.01712 -1.43626,-7.31067 0.56696,-10.96129 z"
           id="path4534-66"
           inkscape:connector-curvature="0"
           sodipodi:nodetypes="czczc" />
        <path
           style="opacity:1;fill:#000000;fill-opacity:1;stroke:#000000;stroke-width:2.33108234;stroke-linecap:round;stroke-linejoin:round;stroke-miterlimit:4;stroke-dasharray:none;stroke-dashoffset:10.01574802;stroke-opacity:1"
           id="path4557"
           sodipodi:type="arc"
           sodipodi:cx="69.308975"
           sodipodi:cy="86.937668"
           sodipodi:rx="0.15575682"
           sodipodi:ry="0.20025875"
           sodipodi:start="0"
           sodipodi:end="6.2793979"
           sodipodi:open="true"
           d="m 69.464732,86.937668 a 0.15575682,0.20025875 0 0 1 -0.155609,0.200259 0.15575682,0.20025875 0 0 1 -0.155904,-0.19988 0.15575682,0.20025875 0 0 1 0.155314,-0.200637 0.15575682,0.20025875 0 0 1 0.156198,0.199499" />
        <path
           style="opacity:1;fill:#000000;fill-opacity:1;stroke:#000000;stroke-width:1.71308649;stroke-linecap:round;stroke-linejoin:round;stroke-miterlimit:4;stroke-dasharray:none;stroke-dashoffset:10.01574802;stroke-opacity:1"
           id="path4559"
           sodipodi:type="arc"
           sodipodi:cx="71.191002"
           sodipodi:cy="90.412842"
           sodipodi:rx="0.0081759971"
           sodipodi:ry="0.04087998"
           sodipodi:start="0"
           sodipodi:end="6.2793979"
           sodipodi:open="true"
           d="m 71.199178,90.412842 a 0.008176,0.04087998 0 0 1 -0.0082,0.04088 0.008176,0.04087998 0 0 1 -0.0082,-0.0408 0.008176,0.04087998 0 0 1 0.0082,-0.04096 0.008176,0.04087998 0 0 1 0.0082,0.04073" />
        <path
           style="opacity:1;fill:#000000;fill-opacity:1;stroke:#000000;stroke-width:2.39987016;stroke-linecap:round;stroke-linejoin:round;stroke-miterlimit:4;stroke-dasharray:none;stroke-dashoffset:10.01574802;stroke-opacity:1"
           id="path4557-2"
           sodipodi:type="arc"
           sodipodi:cx="67.749771"
           sodipodi:cy="92.984665"
           sodipodi:rx="0.16590226"
           sodipodi:ry="0.19927213"
           sodipodi:start="0"
           sodipodi:end="6.2793979"
           sodipodi:open="true"
           d="m 67.915673,92.984665 a 0.16590226,0.19927213 0 0 1 -0.165745,0.199272 0.16590226,0.19927213 0 0 1 -0.166059,-0.198895 0.16590226,0.19927213 0 0 1 0.165431,-0.199648 0.16590226,0.19927213 0 0 1 0.166372,0.198516" />
        <path
           style="opacity:1;fill:#000000;fill-opacity:1;stroke:#000000;stroke-width:2.33108258;stroke-linecap:round;stroke-linejoin:round;stroke-miterlimit:4;stroke-dasharray:none;stroke-dashoffset:10.01574802;stroke-opacity:1"
           id="path4557-22"
           sodipodi:type="arc"
           sodipodi:cx="72.911423"
           sodipodi:cy="94.538162"
           sodipodi:rx="0.15575682"
           sodipodi:ry="0.20025875"
           sodipodi:start="0"
           sodipodi:end="6.2793979"
           sodipodi:open="true"
           d="m 73.06718,94.538162 a 0.15575682,0.20025875 0 0 1 -0.15561,0.200259 0.15575682,0.20025875 0 0 1 -0.155904,-0.19988 0.15575682,0.20025875 0 0 1 0.155314,-0.200637 0.15575682,0.20025875 0 0 1 0.156198,0.1995" />
        <path
           style="opacity:1;fill:#000000;fill-opacity:1;stroke:#000000;stroke-width:2.39987016;stroke-linecap:round;stroke-linejoin:round;stroke-miterlimit:4;stroke-dasharray:none;stroke-dashoffset:10.01574802;stroke-opacity:1"
           id="path4557-2-9"
           sodipodi:type="arc"
           sodipodi:cx="106.5892"
           sodipodi:cy="83.254456"
           sodipodi:rx="0.16590226"
           sodipodi:ry="0.19927213"
           sodipodi:start="0"
           sodipodi:end="6.2793979"
           sodipodi:open="true"
           d="m 106.75511,83.254456 a 0.16590226,0.19927213 0 0 1 -0.16575,0.199272 0.16590226,0.19927213 0 0 1 -0.16606,-0.198895 0.16590226,0.19927213 0 0 1 0.16543,-0.199649 0.16590226,0.19927213 0 0 1 0.16637,0.198517" />
        <path
           style="opacity:1;fill:#000000;fill-opacity:1;stroke:#000000;stroke-width:2.39987016;stroke-linecap:round;stroke-linejoin:round;stroke-miterlimit:4;stroke-dasharray:none;stroke-dashoffset:10.01574802;stroke-opacity:1"
           id="path4557-2-4"
           sodipodi:type="arc"
           sodipodi:cx="103.18742"
           sodipodi:cy="90.247025"
           sodipodi:rx="0.16590226"
           sodipodi:ry="0.19927213"
           sodipodi:start="0"
           sodipodi:end="6.2793979"
           sodipodi:open="true"
           d="m 103.35333,90.247025 a 0.16590226,0.19927213 0 0 1 -0.16575,0.199272 0.16590226,0.19927213 0 0 1 -0.16606,-0.198895 0.16590226,0.19927213 0 0 1 0.16543,-0.199649 0.16590226,0.19927213 0 0 1 0.16637,0.198517" />
        <path
           style="opacity:1;fill:#000000;fill-opacity:1;stroke:#000000;stroke-width:2.39987016;stroke-linecap:round;stroke-linejoin:round;stroke-miterlimit:4;stroke-dasharray:none;stroke-dashoffset:10.01574802;stroke-opacity:1"
           id="path4557-2-6"
           sodipodi:type="arc"
           sodipodi:cx="109.23504"
           sodipodi:cy="88.168152"
           sodipodi:rx="0.16590226"
           sodipodi:ry="0.19927213"
           sodipodi:start="0"
           sodipodi:end="6.2793979"
           sodipodi:open="true"
           d="m 109.40094,88.168152 a 0.16590226,0.19927213 0 0 1 -0.16574,0.199272 0.16590226,0.19927213 0 0 1 -0.16606,-0.198895 0.16590226,0.19927213 0 0 1 0.16543,-0.199648 0.16590226,0.19927213 0 0 1 0.16637,0.198516" />
        <path
           style="opacity:1;fill:#000000;fill-opacity:1;stroke:#000000;stroke-width:2.39987016;stroke-linecap:round;stroke-linejoin:round;stroke-miterlimit:4;stroke-dasharray:none;stroke-dashoffset:10.01574802;stroke-opacity:1"
           id="path4557-2-2"
           sodipodi:type="arc"
           sodipodi:cx="135.12639"
           sodipodi:cy="83.443451"
           sodipodi:rx="0.16590226"
           sodipodi:ry="0.19927213"
           sodipodi:start="0"
           sodipodi:end="6.2793979"
           sodipodi:open="true"
           d="m 135.29229,83.443451 a 0.16590226,0.19927213 0 0 1 -0.16574,0.199272 0.16590226,0.19927213 0 0 1 -0.16606,-0.198895 0.16590226,0.19927213 0 0 1 0.16543,-0.199648 0.16590226,0.19927213 0 0 1 0.16637,0.198516" />
        <path
           style="opacity:1;fill:#000000;fill-opacity:1;stroke:#000000;stroke-width:2.39987016;stroke-linecap:round;stroke-linejoin:round;stroke-miterlimit:4;stroke-dasharray:none;stroke-dashoffset:10.01574802;stroke-opacity:1"
           id="path4557-2-62"
           sodipodi:type="arc"
           sodipodi:cx="142.68593"
           sodipodi:cy="92.136902"
           sodipodi:rx="0.16590226"
           sodipodi:ry="0.19927213"
           sodipodi:start="0"
           sodipodi:end="6.2793979"
           sodipodi:open="true"
           d="m 142.85183,92.136902 a 0.16590226,0.19927213 0 0 1 -0.16574,0.199272 0.16590226,0.19927213 0 0 1 -0.16606,-0.198895 0.16590226,0.19927213 0 0 1 0.16543,-0.199648 0.16590226,0.19927213 0 0 1 0.16637,0.198516" />
        <path
           style="opacity:1;fill:#000000;fill-opacity:1;stroke:#000000;stroke-width:2.39987016;stroke-linecap:round;stroke-linejoin:round;stroke-miterlimit:4;stroke-dasharray:none;stroke-dashoffset:10.01574802;stroke-opacity:1"
           id="path4557-2-3"
           sodipodi:type="arc"
           sodipodi:cx="133.42551"
           sodipodi:cy="91.758926"
           sodipodi:rx="0.16590226"
           sodipodi:ry="0.19927213"
           sodipodi:start="0"
           sodipodi:end="6.2793979"
           sodipodi:open="true"
           d="m 133.59141,91.758926 a 0.16590226,0.19927213 0 0 1 -0.16575,0.199272 0.16590226,0.19927213 0 0 1 -0.16606,-0.198894 0.16590226,0.19927213 0 0 1 0.16544,-0.199649 0.16590226,0.19927213 0 0 1 0.16637,0.198517" />
        <path
           style="opacity:1;fill:#000000;fill-opacity:1;stroke:#000000;stroke-width:2.39987016;stroke-linecap:round;stroke-linejoin:round;stroke-miterlimit:4;stroke-dasharray:none;stroke-dashoffset:10.01574802;stroke-opacity:1"
           id="path4557-2-8"
           sodipodi:type="arc"
           sodipodi:cx="139.28413"
           sodipodi:cy="87.223206"
           sodipodi:rx="0.16590226"
           sodipodi:ry="0.19927213"
           sodipodi:start="0"
           sodipodi:end="6.2793979"
           sodipodi:open="true"
           d="m 139.45004,87.223206 a 0.16590226,0.19927213 0 0 1 -0.16575,0.199272 0.16590226,0.19927213 0 0 1 -0.16606,-0.198895 0.16590226,0.19927213 0 0 1 0.16543,-0.199649 0.16590226,0.19927213 0 0 1 0.16637,0.198517" />
        <path
           style="opacity:1;fill:#000000;fill-opacity:1;stroke:#000000;stroke-width:2.39987016;stroke-linecap:round;stroke-linejoin:round;stroke-miterlimit:4;stroke-dasharray:none;stroke-dashoffset:10.01574802;stroke-opacity:1"
           id="path4557-2-60"
           sodipodi:type="arc"
           sodipodi:cx="138.15022"
           sodipodi:cy="91.947922"
           sodipodi:rx="0.16590226"
           sodipodi:ry="0.19927213"
           sodipodi:start="0"
           sodipodi:end="6.2793979"
           sodipodi:open="true"
           d="m 138.31613,91.947922 a 0.16590226,0.19927213 0 0 1 -0.16575,0.199272 0.16590226,0.19927213 0 0 1 -0.16606,-0.198895 0.16590226,0.19927213 0 0 1 0.16543,-0.199649 0.16590226,0.19927213 0 0 1 0.16637,0.198517" />
        <path
           style="fill:none;stroke:#000000;stroke-width:3;stroke-linecap:round;stroke-linejoin:miter;stroke-miterlimit:4;stroke-dasharray:none;stroke-opacity:1"
           d="m 60.495465,138.1214 c 7.744386,-5.02454 24.284049,-5.4598 30.224667,-2.99138 5.940615,2.46842 23.874698,7.65655 35.151788,0.75595 11.27709,-6.9006 31.32525,2.89328 30.61607,3.77976"
           id="path4526-0"
           inkscape:connector-curvature="0"
           sodipodi:nodetypes="czzc" />
        <path
           style="opacity:1;fill:#ff0000;fill-opacity:1;stroke:#000000;stroke-width:0.75761437;stroke-linecap:round;stroke-linejoin:round;stroke-miterlimit:4;stroke-dasharray:none;stroke-dashoffset:10.01574802;stroke-opacity:1"
           d="m 69.741246,83.157476 c -0.952029,0.08581 -1.588786,0.921774 -2.191986,1.572434 -1.353524,1.654315 -2.374977,3.56887 -3.152307,5.553858 -0.550616,1.458355 -0.767066,3.23699 0.168294,4.59037 0.937461,1.3413 2.45074,2.147414 3.94797,2.714197 0.981598,0.344487 2.023877,0.455808 3.059361,0.39267 1.168013,4e-5 2.369333,-0.09745 3.461858,-0.53231 0.532064,-0.382735 0.64751,-1.108884 0.781709,-1.709454 0.264314,-1.855097 -0.205179,-3.727545 -0.789096,-5.47847 -0.85661,-2.374604 -2.164445,-4.617919 -3.94404,-6.418694 -0.371528,-0.334693 -0.81262,-0.696468 -1.341763,-0.684601 z m -0.360059,2.628325 c 1.019337,-2.3e-5 1.409727,1.508014 0.618324,2.082954 -0.628793,0.492773 -1.730044,0.118533 -1.783972,-0.733036 -0.170765,-0.735066 0.431951,-1.37409 1.165648,-1.349918 z m 1.888898,3.929436 c 0.684416,0.0096 0.814647,1.098873 0.176178,1.316119 -0.539361,0.305396 -1.133232,-0.332044 -0.888331,-0.862361 0.115658,-0.275738 0.415632,-0.459963 0.712153,-0.453758 z m -3.394506,2.094828 c 0.787249,0.04767 1.336971,1.025702 0.91626,1.717678 -0.378773,0.863401 -1.845032,0.853209 -2.120408,-0.09057 -0.234492,-0.640842 0.09384,-1.520089 0.833911,-1.608577 0.121999,-0.02191 0.246658,-0.02614 0.370237,-0.01852 z m 5.047062,1.580779 c 0.78949,-0.03819 1.333005,0.873938 1.033452,1.577388 -0.252992,0.805969 -1.442474,0.990148 -1.925048,0.29337 -0.547822,-0.663496 -0.113427,-1.84767 0.78889,-1.866188 0.03414,-0.003 0.06843,-0.0045 0.102706,-0.0046 z"
           id="path4665"
           inkscape:connector-curvature="0" />
        <path
           style="opacity:1;fill:#ff0000;fill-opacity:1;stroke:#000000;stroke-width:1.07142854;stroke-linecap:round;stroke-linejoin:round;stroke-miterlimit:4;stroke-dasharray:none;stroke-dashoffset:10.01574802;stroke-opacity:1"
           d="m 107.12617,79.595581 c -1.28588,0.29432 -2.03914,1.528003 -2.81618,2.490065 -1.42942,2.190385 -2.88762,4.407911 -3.81298,6.867983 -0.515488,1.341209 -0.580641,3.059152 0.53633,4.124332 2.04756,1.933197 5.08586,2.594303 7.81845,2.125009 1.62502,-0.312793 3.36182,-0.79394 4.54901,-2.012981 0.82248,-0.901391 0.61757,-2.213864 0.4948,-3.322979 -0.58301,-2.662857 -2.01179,-5.059545 -3.53675,-7.285757 -0.79831,-1.034952 -1.5422,-2.228625 -2.71997,-2.866631 -0.16426,-0.06114 -0.33391,-0.129064 -0.51271,-0.119041 z m -0.4219,2.478254 c 1.19939,-0.02024 1.4534,1.980221 0.31615,2.284098 -0.53047,0.187123 -1.17643,0.105452 -1.42129,-0.48059 -0.54236,-0.784907 0.12272,-1.92473 1.10514,-1.803508 z m 2.64583,4.913691 c 1.1994,-0.02024 1.4534,1.980221 0.31615,2.284097 -0.53046,0.187124 -1.17643,0.105453 -1.42128,-0.480589 -0.54237,-0.784907 0.12272,-1.92473 1.10513,-1.803508 z m -6.04762,2.078868 c 1.1994,-0.02024 1.4534,1.980221 0.31615,2.2841 -0.53046,0.187122 -1.17642,0.10545 -1.42128,-0.480592 -0.54237,-0.784907 0.12272,-1.924727 1.10513,-1.803508 z"
           id="path4667"
           inkscape:connector-curvature="0" />
        <path
           style="opacity:1;fill:#ff0000;fill-opacity:1;stroke:#000000;stroke-width:1.07142854;stroke-linecap:round;stroke-linejoin:round;stroke-miterlimit:4;stroke-dasharray:none;stroke-dashoffset:10.01574802;stroke-opacity:1"
           d="m 137.44833,80.769487 c -0.81017,0.05697 -1.49462,0.664477 -1.9949,1.23562 0.26555,0.522517 1.04869,0.890267 0.83052,1.603076 -0.0136,0.708247 -0.7491,1.123071 -1.3973,0.98702 -0.36099,0.06382 -0.6847,-0.556324 -0.97299,-0.123838 -0.76399,1.754023 -1.24394,3.644966 -1.2351,5.568137 -0.21357,0.680368 0.5451,0.563428 0.97782,0.559763 0.54884,0.01162 0.96837,0.667155 0.93756,1.180439 0.0595,0.491649 -0.32645,0.813438 -0.62381,1.123408 -0.045,0.473418 0.61462,0.588655 0.92335,0.815935 2.28541,1.022699 4.82831,1.574951 7.33621,1.408737 1.11538,-0.133154 2.52195,-0.439957 3.00498,-1.590159 0.40199,-1.295326 -0.18546,-2.641987 -0.62658,-3.848786 -1.2919,-2.828268 -3.02728,-5.471805 -5.13811,-7.756448 -0.55117,-0.544507 -1.19103,-1.168685 -2.02165,-1.162904 z m 1.9207,5.27155 c 0.70316,0.0013 1.27009,0.808157 1.05272,1.480159 -0.0903,0.770694 -1.03942,1.014044 -1.66859,0.802648 -0.68242,-0.374632 -0.85851,-1.322883 -0.34661,-1.913322 0.23457,-0.275055 0.60876,-0.393842 0.96248,-0.369485 z m -1.13393,4.724702 c 0.70316,0.0013 1.27009,0.808159 1.05272,1.480161 -0.0903,0.770691 -1.03942,1.014042 -1.66859,0.802645 -0.68242,-0.374629 -0.85851,-1.32288 -0.34661,-1.913321 0.23458,-0.275056 0.60876,-0.39384 0.96248,-0.369485 z m 4.53571,0.188986 c 0.70316,0.0013 1.27009,0.808159 1.05273,1.480161 -0.0903,0.770695 -1.03943,1.014042 -1.6686,0.802648 -0.68242,-0.374631 -0.8585,-1.322882 -0.3466,-1.913321 0.23457,-0.275055 0.60876,-0.393843 0.96247,-0.369488 z"
           id="path4669"
           inkscape:connector-curvature="0" />
        <path
           style="opacity:1;fill:#ff7f2a;fill-opacity:1;stroke:#ff7f2a;stroke-width:2.14285707;stroke-linecap:round;stroke-linejoin:round;stroke-miterlimit:4;stroke-dasharray:none;stroke-dashoffset:10.01574802;stroke-opacity:1"
           d="m 118.6853,101.24122 c -12.06298,0.0405 -24.097484,1.09157 -36.09153,2.29667 -5.477534,0.71268 -11.162728,1.02764 -16.288358,3.26229 -2.599894,1.12003 -4.573157,3.50861 -5.039458,6.32067 -0.746101,2.13168 0.361259,4.27185 0.659746,6.37887 0.59019,2.53237 1.089824,5.0933 1.798762,7.59411 0.772657,0.26533 1.655387,-0.43136 2.464226,-0.52643 6.319292,-1.71647 12.983583,-1.92924 19.494566,-1.40663 4.156945,0.48291 7.944681,2.45748 12.009567,3.38119 6.778719,1.84576 14.011989,2.63323 20.932549,1.1171 4.90155,-1.14081 8.96702,-4.79072 14.12827,-4.90054 6.73588,-0.58977 13.48641,1.09519 19.6863,3.6422 1.00554,0.42059 0.56993,-1.27259 0.7571,-1.90449 0.008,-6.12339 -0.40998,-12.68716 -3.96986,-17.9092 -2.14346,-3.17645 -5.46814,-5.58238 -9.29216,-6.20228 -6.98455,-1.41875 -14.16689,-1.06505 -21.24972,-1.14353 z"
           id="path4679"
           inkscape:connector-curvature="0" />
        <path
           style="opacity:1;fill:#ff8080;fill-opacity:1;stroke:#ffdd55;stroke-width:0.30000001;stroke-linecap:round;stroke-linejoin:round;stroke-miterlimit:4;stroke-dasharray:none;stroke-dashoffset:10.01574802;stroke-opacity:1"
           d="m 135.43695,134.83386 c -3.63771,-0.0402 -7.16759,1.15855 -10.25666,3.02528 -6.51922,3.29121 -14.13027,3.11387 -21.20723,2.22956 -5.059015,-0.65534 -9.921514,-2.20779 -14.698865,-3.9377 -4.651976,-1.35558 -9.594379,-1.12396 -14.375442,-0.79817 -2.886544,0.31781 -5.812835,0.7751 -8.55245,1.73781 -0.477906,0.92583 0.161819,2.07655 0.191942,3.05777 2.106417,11.27181 2.512084,23.24889 -1.534925,34.15558 -0.44895,0.92598 -1.038727,2.48017 0.616998,1.80049 6.681277,-0.78833 13.491554,-1.03471 20.202832,-0.39678 8.144705,1.05481 16.21504,2.99724 23.86159,6.04503 7.09623,2.23495 14.71054,2.77871 22.03926,1.45654 6.12094,-1.01846 12.06441,-2.95489 17.73129,-5.46257 0.12567,-1.50651 -0.46338,-3.13014 -0.59369,-4.68473 -1.68166,-11.43187 -1.34313,-23.22837 1.61762,-34.43248 0.4364,-1.06792 -1.11257,-1.03962 -1.73746,-1.36303 -4.3057,-1.38241 -8.75358,-2.47276 -13.30481,-2.4326 z"
           id="path4685"
           inkscape:connector-curvature="0" />
        <path
           style="opacity:1;fill:#ff8080;fill-opacity:1;stroke:#ff8080;stroke-width:2.16475677;stroke-linecap:round;stroke-linejoin:round;stroke-miterlimit:4;stroke-dasharray:none;stroke-dashoffset:10.01574802;stroke-opacity:1"
           d="m 135.20701,135.0115 c -5.59519,-0.33302 -10.06512,3.65575 -15.33628,4.77382 -7.05993,1.68563 -14.54705,0.81167 -21.560821,-0.78279 -6.183895,-1.55503 -12.248349,-4.35883 -18.781617,-3.81042 -4.40472,0.24504 -8.905426,0.60373 -13.123873,1.92883 -0.338379,1.32461 0.332263,2.87216 0.40305,4.25644 1.469295,8.56539 1.840121,17.44911 0.204137,25.99685 -0.556414,2.91697 -1.719459,5.71956 -2.339743,8.58014 0.776947,0.5234 1.921383,-0.30912 2.839287,-0.1575 9.182586,-0.62794 18.606145,-0.7915 27.60596,1.48759 6.96516,1.35479 13.45257,4.38779 20.39808,5.80527 10.40919,2.02992 21.154,-0.41007 30.88947,-4.15468 0.88435,-0.63538 2.80992,-0.58699 3.01565,-1.89542 -1.84793,-10.04254 -1.91655,-20.41603 -0.6619,-30.53502 0.27943,-2.68805 1.21972,-5.27879 1.54358,-7.94762 -0.52309,-1.4955 -2.64672,-1.26836 -3.84856,-1.87775 -3.64117,-1.1236 -7.42773,-1.77142 -11.24642,-1.66774 z"
           id="path4689"
           inkscape:connector-curvature="0" />
        <path
           style="opacity:1;fill:#782121;fill-opacity:1;stroke:#782121;stroke-width:1.08237839;stroke-linecap:round;stroke-linejoin:round;stroke-miterlimit:4;stroke-dasharray:none;stroke-dashoffset:10.01574802;stroke-opacity:1"
           d="m 135.15973,127.35321 c -3.39254,-0.004 -6.79566,0.83588 -9.68565,2.64346 -5.74166,3.16161 -12.53199,3.55939 -18.92498,2.97911 -5.94174,-0.54079 -11.731128,-2.14509 -17.320128,-4.21368 -4.663334,-1.51651 -9.653034,-1.18843 -14.474015,-0.92875 -3.381513,0.30476 -6.771476,0.92444 -9.958888,2.10799 -0.583157,0.47799 -0.0027,1.36005 0.0096,1.96253 0.255813,0.76507 0.21513,1.71166 0.672423,2.36911 1.605224,-0.23677 3.167346,-0.83383 4.785246,-1.05403 5.903296,-1.01379 12.010641,-1.30484 17.930836,-0.20167 3.397671,0.76177 6.564498,2.30693 9.962576,3.083 4.5507,1.12161 9.22357,1.97577 13.92958,1.78911 4.62975,0.12284 9.31519,-0.96666 13.31569,-3.31704 4.2953,-2.47592 9.45515,-2.78257 14.27513,-2.23996 3.95578,0.4199 7.79665,1.56659 11.54852,2.8455 0.65573,-0.32016 0.65826,-1.27605 0.98394,-1.85721 0.057,-0.63207 1.09978,-1.72118 0.0764,-1.97177 -5.38115,-2.35308 -11.2146,-4.01989 -17.12623,-3.9957 z"
           id="path4693"
           inkscape:connector-curvature="0" />
      </g>
      <path
         inkscape:connector-curvature="0"
         id="path865"
         d="M 94.628906,23.421875 C 70.750684,24.430261 44.895084,34.187117 19.560547,59.537109 l 0.1875,0.1875 C 53.474622,25.97746 88.068903,19.930396 117.70898,25.335938 c 29.64009,5.405541 54.32474,22.279912 68.16797,34.394531 l 0.17383,-0.199219 C 172.18189,47.394177 147.46601,30.494493 117.75586,25.076172 110.32832,23.721592 102.58831,23.085746 94.628906,23.421875 Z"
         style="color:#000000;font-style:normal;font-variant:normal;font-weight:normal;font-stretch:normal;font-size:medium;line-height:normal;font-family:sans-serif;font-variant-ligatures:normal;font-variant-position:normal;font-variant-caps:normal;font-variant-numeric:normal;font-variant-alternates:normal;font-feature-settings:normal;text-indent:0;text-align:start;text-decoration:none;text-decoration-line:none;text-decoration-style:solid;text-decoration-color:#000000;letter-spacing:normal;word-spacing:normal;text-transform:none;writing-mode:lr-tb;direction:ltr;text-orientation:mixed;dominant-baseline:auto;baseline-shift:baseline;text-anchor:start;white-space:normal;shape-padding:0;clip-rule:nonzero;display:inline;overflow:visible;visibility:visible;opacity:0;isolation:auto;mix-blend-mode:normal;color-interpolation:sRGB;color-interpolation-filters:linearRGB;solid-color:#000000;solid-opacity:1;vector-effect:none;fill:#000000;fill-opacity:1;fill-rule:nonzero;stroke:none;stroke-width:0.26458332px;stroke-linecap:butt;stroke-linejoin:miter;stroke-miterlimit:4;stroke-dasharray:none;stroke-dashoffset:0;stroke-opacity:1;color-rendering:auto;image-rendering:auto;shape-rendering:auto;text-rendering:auto;enable-background:accumulate" />
      <path
         sodipodi:nodetypes="cc"
         inkscape:connector-curvature="0"
         id="path865-9"
         d="M 26.473763,255.78019 C 48.22218,269.37303 124.898,274.2916 189.00353,231.58971"
         style="fill:none;stroke:#000000;stroke-width:0.26458332px;stroke-linecap:butt;stroke-linejoin:miter;stroke-opacity:1;opacity:0" />
      <text
         transform="translate(-0.75595238,18.142857)"
         id="text909"
         style="font-style:normal;font-variant:normal;font-weight:normal;font-stretch:normal;font-size:22.57777786px;line-height:1.25;font-family:'Lucida Handwriting';-inkscape-font-specification:'Lucida Handwriting';letter-spacing:0px;word-spacing:0px;fill:#000000;fill-opacity:1;stroke:none;stroke-width:0.26458332"
         xml:space="preserve"><textPath
           id="textPath911"
           xlink:href="#path865"><tspan
   id="tspan907"
   style="stroke-width:0.26458332"><tspan
     x="-180.67268"
     y="132.48499"
     id="tspan905"
     style="stroke-width:0.26458332">               Pastelería</tspan></tspan></textPath></text>
      <text
         id="text921"
         style="font-style:normal;font-variant:normal;font-weight:normal;font-stretch:normal;font-size:22.57777786px;line-height:1.25;font-family:'Lucida Handwriting';-inkscape-font-specification:'Lucida Handwriting';letter-spacing:0px;word-spacing:0px;fill:#000000;fill-opacity:1;stroke:none;stroke-width:0.26458332;opacity:1;"
         xml:space="preserve"><textPath
           id="textPath923"
           xlink:href="#path865-9"><tspan
   id="tspan919"
   style="stroke-width:0.26458332;"><tspan
     x="-160.26205"
     y="271.58038"
     id="tspan917"
     style="stroke-width:0.26458332;">            Meztli</tspan></tspan></textPath></text>
    </g>
  </g>
</svg>
